<svg width="370" height="140" viewBox="0 0 370 140" fill="none" xmlns="http://www.w3.org/2000/svg">
    <rect width="370" height="140" rx="3" fill="#F2F2F2"/>
    <line x1="10.1664" y1="9.5285" x2="350.166" y2="129.529" stroke="#E0E0E0"/>
    <line x1="9.83574" y1="129.528" x2="354.836" y2="9.52775" stroke="#E0E0E0"/>
    <path d="M145.172 73.5938C144.75 74.0625 144.133 74.4401 143.32 74.7266C142.508 75.013 141.617 75.1562 140.648 75.1562C139.159 75.1562 137.969 74.7005 137.078 73.7891C136.188 72.8776 135.711 71.6094 135.648 69.9844L135.641 69C135.641 67.8802 135.839 66.9036 136.234 66.0703C136.63 65.2318 137.195 64.5885 137.93 64.1406C138.669 63.6875 139.523 63.4609 140.492 63.4609C141.909 63.4609 143.008 63.7865 143.789 64.4375C144.576 65.0833 145.034 66.0495 145.164 67.3359H142.523C142.43 66.7005 142.227 66.2474 141.914 65.9766C141.602 65.7057 141.159 65.5703 140.586 65.5703C139.898 65.5703 139.367 65.862 138.992 66.4453C138.617 67.0286 138.427 67.862 138.422 68.9453V69.6328C138.422 70.7682 138.615 71.6224 139 72.1953C139.391 72.763 140.003 73.0469 140.836 73.0469C141.549 73.0469 142.081 72.888 142.43 72.5703V70.8047H140.523V68.9219H145.172V73.5938ZM146.312 70.6953C146.312 69.8516 146.477 69.1016 146.805 68.4453C147.133 67.7839 147.604 67.276 148.219 66.9219C148.833 66.5677 149.555 66.3906 150.383 66.3906C151.648 66.3906 152.646 66.7839 153.375 67.5703C154.104 68.3516 154.469 69.4167 154.469 70.7656V70.8594C154.469 72.1771 154.102 73.224 153.367 74C152.638 74.7708 151.648 75.1562 150.398 75.1562C149.195 75.1562 148.229 74.7969 147.5 74.0781C146.771 73.3542 146.378 72.375 146.32 71.1406L146.312 70.6953ZM148.945 70.8594C148.945 71.6406 149.068 72.2135 149.312 72.5781C149.557 72.9427 149.919 73.125 150.398 73.125C151.336 73.125 151.815 72.4036 151.836 70.9609V70.6953C151.836 69.1797 151.352 68.4219 150.383 68.4219C149.503 68.4219 149.026 69.0755 148.953 70.3828L148.945 70.8594ZM155.297 70.6953C155.297 69.8516 155.461 69.1016 155.789 68.4453C156.117 67.7839 156.589 67.276 157.203 66.9219C157.818 66.5677 158.539 66.3906 159.367 66.3906C160.633 66.3906 161.63 66.7839 162.359 67.5703C163.089 68.3516 163.453 69.4167 163.453 70.7656V70.8594C163.453 72.1771 163.086 73.224 162.352 74C161.622 74.7708 160.633 75.1562 159.383 75.1562C158.18 75.1562 157.214 74.7969 156.484 74.0781C155.755 73.3542 155.362 72.375 155.305 71.1406L155.297 70.6953ZM157.93 70.8594C157.93 71.6406 158.052 72.2135 158.297 72.5781C158.542 72.9427 158.904 73.125 159.383 73.125C160.32 73.125 160.799 72.4036 160.82 70.9609V70.6953C160.82 69.1797 160.336 68.4219 159.367 68.4219C158.487 68.4219 158.01 69.0755 157.938 70.3828L157.93 70.8594ZM164.305 70.7109C164.305 69.8568 164.445 69.1016 164.727 68.4453C165.008 67.7891 165.411 67.2839 165.938 66.9297C166.464 66.5703 167.076 66.3906 167.773 66.3906C168.654 66.3906 169.341 66.6875 169.836 67.2812L169.93 66.5469H172.32V74.6797C172.32 75.4245 172.146 76.0703 171.797 76.6172C171.453 77.1693 170.953 77.5911 170.297 77.8828C169.641 78.1797 168.88 78.3281 168.016 78.3281C167.396 78.3281 166.794 78.2109 166.211 77.9766C165.633 77.7422 165.19 77.4375 164.883 77.0625L165.984 75.5156C166.474 76.0938 167.12 76.3828 167.922 76.3828C169.089 76.3828 169.672 75.7839 169.672 74.5859V74.3203C169.167 74.8776 168.529 75.1562 167.758 75.1562C166.727 75.1562 165.893 74.763 165.258 73.9766C164.622 73.1849 164.305 72.1276 164.305 70.8047V70.7109ZM166.945 70.875C166.945 71.5677 167.076 72.1172 167.336 72.5234C167.596 72.9245 167.961 73.125 168.43 73.125C168.997 73.125 169.411 72.9349 169.672 72.5547V69C169.417 68.6146 169.008 68.4219 168.445 68.4219C167.977 68.4219 167.609 68.6328 167.344 69.0547C167.078 69.4714 166.945 70.0781 166.945 70.875ZM176.594 75H173.953V63H176.594V75ZM182.312 75.1562C181.016 75.1562 179.966 74.7708 179.164 74C178.362 73.224 177.961 72.2161 177.961 70.9766V70.7578C177.961 69.8932 178.12 69.1302 178.438 68.4688C178.76 67.8073 179.229 67.2969 179.844 66.9375C180.458 66.5729 181.188 66.3906 182.031 66.3906C183.219 66.3906 184.156 66.7604 184.844 67.5C185.531 68.2344 185.875 69.2604 185.875 70.5781V71.6016H180.641C180.734 72.0755 180.94 72.4479 181.258 72.7188C181.576 72.9896 181.987 73.125 182.492 73.125C183.326 73.125 183.977 72.8333 184.445 72.25L185.648 73.6719C185.32 74.125 184.854 74.487 184.25 74.7578C183.651 75.0234 183.005 75.1562 182.312 75.1562ZM182.016 68.4219C181.245 68.4219 180.786 68.9323 180.641 69.9531H183.297V69.75C183.307 69.3281 183.201 69.0026 182.977 68.7734C182.753 68.5391 182.432 68.4219 182.016 68.4219ZM194.531 72.0469H193.742V75H191.102V66.5469H193.742V69.5859H194.5L195.844 66.5469H199.219L196.75 70.4531H196.758L199.469 75H195.898L194.531 72.0469ZM204.859 75C204.766 74.8281 204.682 74.5755 204.609 74.2422C204.125 74.8516 203.448 75.1562 202.578 75.1562C201.781 75.1562 201.104 74.9167 200.547 74.4375C199.99 73.9531 199.711 73.3464 199.711 72.6172C199.711 71.7005 200.049 71.0078 200.727 70.5391C201.404 70.0703 202.388 69.8359 203.68 69.8359H204.492V69.3906C204.492 68.6146 204.156 68.2266 203.484 68.2266C202.859 68.2266 202.547 68.5339 202.547 69.1484H199.914C199.914 68.3307 200.26 67.6667 200.953 67.1562C201.651 66.6458 202.539 66.3906 203.617 66.3906C204.695 66.3906 205.547 66.6536 206.172 67.1797C206.797 67.7057 207.117 68.4271 207.133 69.3438V73.0859C207.143 73.862 207.263 74.4557 207.492 74.8672V75H204.859ZM203.211 73.2812C203.539 73.2812 203.81 73.2109 204.023 73.0703C204.242 72.9297 204.398 72.7708 204.492 72.5938V71.2422H203.727C202.81 71.2422 202.352 71.6536 202.352 72.4766C202.352 72.7161 202.432 72.9115 202.594 73.0625C202.755 73.2083 202.961 73.2812 203.211 73.2812ZM216.156 75H213.508V68.5781H211.18V75H208.547V66.5469H216.156V75ZM225.078 75H222.43V72.4609C222.128 72.513 221.867 72.5391 221.648 72.5391C220.258 72.5391 219.211 72.2708 218.508 71.7344C217.81 71.1927 217.458 70.3828 217.453 69.3047V66.5469H220.086V69.3281C220.091 69.7865 220.201 70.099 220.414 70.2656C220.628 70.4271 221.039 70.5078 221.648 70.5078C221.904 70.5078 222.164 70.4844 222.43 70.4375V66.5469H225.078V75ZM231.25 75C231.156 74.8281 231.073 74.5755 231 74.2422C230.516 74.8516 229.839 75.1562 228.969 75.1562C228.172 75.1562 227.495 74.9167 226.938 74.4375C226.38 73.9531 226.102 73.3464 226.102 72.6172C226.102 71.7005 226.44 71.0078 227.117 70.5391C227.794 70.0703 228.779 69.8359 230.07 69.8359H230.883V69.3906C230.883 68.6146 230.547 68.2266 229.875 68.2266C229.25 68.2266 228.938 68.5339 228.938 69.1484H226.305C226.305 68.3307 226.651 67.6667 227.344 67.1562C228.042 66.6458 228.93 66.3906 230.008 66.3906C231.086 66.3906 231.938 66.6536 232.562 67.1797C233.188 67.7057 233.508 68.4271 233.523 69.3438V73.0859C233.534 73.862 233.654 74.4557 233.883 74.8672V75H231.25ZM229.602 73.2812C229.93 73.2812 230.201 73.2109 230.414 73.0703C230.633 72.9297 230.789 72.7708 230.883 72.5938V71.2422H230.117C229.201 71.2422 228.742 71.6536 228.742 72.4766C228.742 72.7161 228.823 72.9115 228.984 73.0625C229.146 73.2083 229.352 73.2812 229.602 73.2812Z" fill="#4F4F4F"/>
</svg>
