<svg width="17" height="17" viewBox="0 0 17 17" fill="none" xmlns="http://www.w3.org/2000/svg">
    <path d="M8.5 17C3.8 17 0 13.2 0 8.5C0 3.8 3.8 0 8.5 0C13.2 0 17 3.8 17 8.5C17 13.2 13.2 17 8.5 17ZM8.5 1C4.35 1 1 4.35 1 8.5C1 12.65 4.35 16 8.5 16C12.65 16 16 12.65 16 8.5C16 4.35 12.65 1 8.5 1Z" fill="url(#paint0_linear)"/>
    <path d="M12.1414 4.151L12.8484 4.8585L4.85837 12.8485L4.15137 12.1415L12.1414 4.151Z" fill="url(#paint1_linear)"/>
    <path d="M4.85837 4.151L12.8484 12.141L12.1414 12.8485L4.15137 4.8585L4.85837 4.151Z" fill="url(#paint2_linear)"/>
    <defs>
        <linearGradient id="paint0_linear" x1="0" y1="8.5" x2="17" y2="8.5" gradientUnits="userSpaceOnUse">
            <stop stop-color="#F093FB"/>
            <stop offset="1" stop-color="#F5576C"/>
        </linearGradient>
        <linearGradient id="paint1_linear" x1="4.15137" y1="8.49975" x2="12.8484" y2="8.49975" gradientUnits="userSpaceOnUse">
            <stop stop-color="#F093FB"/>
            <stop offset="1" stop-color="#F5576C"/>
        </linearGradient>
        <linearGradient id="paint2_linear" x1="4.15137" y1="8.49975" x2="12.8484" y2="8.49975" gradientUnits="userSpaceOnUse">
            <stop stop-color="#F093FB"/>
            <stop offset="1" stop-color="#F5576C"/>
        </linearGradient>
    </defs>
</svg>
