<svg width="33" height="32" viewBox="0 0 33 32" fill="none" xmlns="http://www.w3.org/2000/svg">
    <path d="M5.33325 0H15.3333C16.6593 0 17.9311 0.526784 18.8688 1.46447C19.8065 2.40215 20.3333 3.67392 20.3333 5V11.6667H18.6666V5C18.6666 4.11595 18.3154 3.2681 17.6903 2.64298C17.0652 2.01786 16.2173 1.66667 15.3333 1.66667H5.33325C4.4492 1.66667 3.60135 2.01786 2.97623 2.64298C2.35111 3.2681 1.99992 4.11595 1.99992 5V26.6667C1.99992 27.5507 2.35111 28.3986 2.97623 29.0237C3.60135 29.6488 4.4492 30 5.33325 30H15.3333C16.2173 30 17.0652 29.6488 17.6903 29.0237C18.3154 28.3986 18.6666 27.5507 18.6666 26.6667V20H20.3333V26.6667C20.3333 27.9928 19.8065 29.2645 18.8688 30.2022C17.9311 31.1399 16.6593 31.6667 15.3333 31.6667H5.33325C4.00717 31.6667 2.7354 31.1399 1.79772 30.2022C0.860036 29.2645 0.333252 27.9928 0.333252 26.6667V5C0.333252 3.67392 0.860036 2.40215 1.79772 1.46447C2.7354 0.526784 4.00717 0 5.33325 0ZM10.3333 15H29.0833L23.6666 9.58333L24.7732 8.33333L32.2732 15.8333L24.7732 23.3333L23.6666 22.0833L29.0833 16.6667H10.3333V15Z" fill="url(#paint0_linear)"/>
    <defs>
        <linearGradient id="paint0_linear" x1="0.333252" y1="15.8333" x2="32.2732" y2="15.8333" gradientUnits="userSpaceOnUse">
            <stop stop-color="#F093FB"/>
            <stop offset="1" stop-color="#F5576C"/>
        </linearGradient>
    </defs>
</svg>
