<svg width="720" height="533" viewBox="0 0 720 533" fill="none" xmlns="http://www.w3.org/2000/svg">
    <path fill-rule="evenodd" clip-rule="evenodd" d="M380.335 0.676781C449.222 9.14622 465.744 87.5158 512.683 130.658C546.895 162.102 601.551 178.423 617.654 218.798C633.809 259.303 609.338 301.134 597.221 342.619C583.934 388.107 583.928 439.669 543.665 472.107C501.272 506.261 438.427 524.838 380.335 517.356C324.989 510.228 298.167 457.901 249.781 434.257C192.539 406.285 110.706 413.014 73.1333 367.24C32.9623 318.301 24.1713 248.563 52.7188 194.182C80.606 141.059 159.874 127.651 216.447 94.2367C271.833 61.5234 313.317 -7.56281 380.335 0.676781Z" fill="url(#paint0_linear)"/>
    <g clip-path="url(#clip0)">
        <path d="M589.1 172H305.2C301.224 172 298 175.224 298 179.2V207.99C298 211.966 301.224 215.19 305.2 215.19H589.1C593.076 215.19 596.3 211.966 596.3 207.99V179.2C596.3 175.224 593.076 172 589.1 172Z" fill="white"/>
        <path d="M589.1 172H542.76V215.19H589.1C591.01 215.19 592.841 214.431 594.191 213.081C595.541 211.731 596.3 209.9 596.3 207.99V179.2C596.3 177.29 595.541 175.459 594.191 174.109C592.841 172.759 591.01 172 589.1 172V172Z" fill="#4B6590"/>
        <path d="M561.84 176.6C558.877 177.554 556.264 179.365 554.33 181.804C552.396 184.243 551.229 187.2 550.976 190.303C550.723 193.405 551.395 196.513 552.908 199.233C554.421 201.953 556.706 204.164 559.475 205.585C562.244 207.007 565.373 207.575 568.465 207.219C571.557 206.863 574.474 205.598 576.847 203.584C579.221 201.571 580.944 198.898 581.799 195.906C582.653 192.913 582.602 189.734 581.65 186.77C580.371 182.795 577.565 179.491 573.851 177.584C570.136 175.677 565.816 175.323 561.84 176.6ZM579.17 187.6C579.965 190.074 580.009 192.729 579.295 195.228C578.582 197.727 577.143 199.958 575.161 201.639C573.18 203.321 570.744 204.377 568.162 204.674C565.58 204.971 562.969 204.496 560.657 203.308C558.345 202.121 556.437 200.275 555.175 198.003C553.912 195.732 553.352 193.137 553.564 190.547C553.776 187.956 554.752 185.487 556.367 183.452C557.983 181.416 560.166 179.905 562.64 179.11C565.954 178.043 569.556 178.334 572.655 179.92C575.755 181.506 578.098 184.258 579.17 187.57V187.6Z" fill="white"/>
        <path d="M588.27 207.18C588.423 207.303 588.55 207.455 588.643 207.628C588.737 207.8 588.796 207.989 588.816 208.184C588.837 208.379 588.818 208.577 588.762 208.765C588.706 208.953 588.614 209.128 588.49 209.28C588.367 209.433 588.215 209.56 588.042 209.653C587.87 209.747 587.681 209.806 587.486 209.826C587.291 209.847 587.093 209.828 586.905 209.772C586.717 209.716 586.542 209.624 586.39 209.5L577.75 202.5C577.597 202.377 577.471 202.225 577.377 202.052C577.283 201.88 577.224 201.691 577.204 201.496C577.183 201.301 577.202 201.103 577.258 200.915C577.314 200.727 577.406 200.552 577.53 200.4C577.653 200.247 577.805 200.12 577.978 200.027C578.15 199.933 578.339 199.874 578.534 199.854C578.73 199.833 578.927 199.852 579.115 199.908C579.303 199.964 579.478 200.056 579.63 200.18L588.27 207.18Z" fill="white"/>
        <path d="M486.13 229.31L479.37 201.84L505.15 213.78L499.32 219.17L505.58 226.89L499.32 231.98L493.21 224.12L486.13 229.31Z" fill="#7A8DB5"/>
        <path d="M486.13 229.31L479.37 201.84L502.49 229.41L499.32 231.98L493.21 224.12L486.13 229.31Z" fill="#4B6590"/>
    </g>
    <g clip-path="url(#clip1)">
        <path d="M529.45 428.69C529.45 428.69 516.63 399.56 532.45 363.69C532.45 363.69 533.45 374.45 531.72 409.01C531.72 409.01 530.56 393.94 546.33 368.32C543.893 386.293 539.703 403.984 533.82 421.14C533.82 421.14 539.43 398.54 549.69 390.8C549.68 390.81 548.63 414.79 529.45 428.69Z" fill="#88D2D0"/>
        <path d="M497.4 341.44C507.15 340.12 518.94 339.2 522 351.1C524.44 360.67 518.32 370.1 525.24 378.81C530.38 385.27 539.68 384.61 545.24 390.56C552.67 398.56 550.77 411.24 548.88 420.96C548.74 421.67 549.88 421.96 549.97 421.26C551.69 412.4 553.3 401.9 548.8 393.57C543.34 383.49 529.8 385.39 524.52 375.67C519.04 365.67 528.15 353.15 519.6 343.87C514 337.8 504.36 339.37 497.1 340.36C496.39 340.45 496.69 341.54 497.4 341.44Z" fill="#4B6590"/>
        <path d="M499 340.56C499 340.56 499.79 352.43 484.33 347.71C484.31 347.71 489.42 335.51 499 340.56Z" fill="#4B6590"/>
        <path d="M533.64 384.25C533.64 384.25 542.58 392.1 528.3 399.67C528.3 399.67 523.31 387.42 533.64 384.25Z" fill="#4B6590"/>
        <path d="M525.1 378.67C525.1 378.67 525.89 390.55 510.44 385.83C510.44 385.83 515.55 373.62 525.1 378.67Z" fill="#4B6590"/>
        <path d="M528.62 380.61C528.62 380.61 523.91 369.68 540.06 369C540.06 369 539.31 382.18 528.62 380.61Z" fill="#4B6590"/>
        <path d="M521.92 369.5C521.92 369.5 515.92 379.78 505.76 367.23C505.76 367.23 516.82 360 521.92 369.5Z" fill="#4B6590"/>
        <path d="M523.05 361.53C523.05 361.53 528.51 351 539.31 363C539.31 363 528.63 370.79 523.05 361.53Z" fill="#4B6590"/>
        <path d="M522.66 350.15C522.66 350.15 524.75 338.43 538.66 346.73C538.62 346.73 530.72 357.35 522.66 350.15Z" fill="#4B6590"/>
        <path d="M522.64 354.91C522.64 354.91 519.64 366.43 506.46 357.08C506.46 357.08 515.16 347.11 522.64 354.91Z" fill="#4B6590"/>
        <path d="M518.51 343.09C518.51 343.09 512.77 332.67 528.77 330.4C528.77 330.4 529.31 343.63 518.51 343.09Z" fill="#4B6590"/>
        <path d="M511.19 340.93C511.19 340.93 518.75 350.11 503.45 355.29C503.45 355.29 500.48 342.4 511.19 340.93Z" fill="#4B6590"/>
        <path d="M507.64 339.77C507.64 339.77 495.74 339.65 501.64 324.6C501.63 324.6 513.41 330.64 507.64 339.77Z" fill="#4B6590"/>
        <path d="M542.11 518.86C542.11 518.86 499.3 481.86 449.42 482.47C449.42 482.47 461.53 489 502.84 504.26C502.84 504.26 485.78 495.38 447.9 501.04C470.162 507.168 492.971 511.104 516 512.79C516 512.79 486.73 508.05 472.55 516.21C472.55 516.21 516.24 534.37 542.11 518.86Z" fill="#88D2D0"/>
        <path d="M529.27 431.11C529.27 431.11 532.74 399.47 506.88 370C506.88 370 509.18 380.56 521.2 413C521.2 413 517.77 398.29 495.03 378.6C502.757 395.007 512.071 410.618 522.84 425.21C522.84 425.21 510.7 405.36 498.58 401.07C498.58 401.07 506.8 423.62 529.27 431.11Z" fill="#88D2D0"/>
        <path d="M631.81 347.53C631.81 347.53 653.63 324.37 650.73 285.29C650.73 285.29 646.2 295.1 636.26 328.23C636.26 328.23 642.38 314.42 636.09 285C632.375 302.765 630.406 320.851 630.21 339C630.21 339 632.49 315.82 625.41 305.1C625.41 305.07 618.38 328 631.81 347.53Z" fill="#88D2D0"/>
        <path d="M675.94 397.48C675.94 397.48 673 366.25 697.25 336C697.25 336 695.02 346.57 683.58 379.21C683.58 379.21 686.9 364.48 708.14 344.04C700.869 360.578 692.121 376.425 682 391.39C682 391.39 693.42 371.2 704.68 366.46C704.63 366.46 696.81 389.14 675.94 397.48Z" fill="#88D2D0"/>
        <path d="M643.89 517.9C643.89 517.9 650.96 477.26 695.64 453.57C695.64 453.57 688.75 465.45 661.09 499.57C661.09 499.57 682.09 475.08 719.09 461.88C719.09 461.88 686.48 492.88 654.44 513.81C654.44 513.81 677.64 495.24 695.09 495.81C695.11 495.82 676.07 519.59 643.89 517.9Z" fill="#88D2D0"/>
        <path d="M435.16 459.34C439.75 465.4 444.82 471.61 452.24 474.21C460.72 477.21 470.58 473.52 478.53 477.59C485.43 481.12 489.32 488.51 495.94 492.5C505.58 498.33 516.48 495.73 526.33 491.97C527.33 491.57 526.92 489.88 525.86 490.28C514.93 494.45 503.08 496.67 493.41 488.5C488.41 484.26 484.63 478.39 478.46 475.62C471.46 472.49 463.53 474.94 456.2 473.46C447.48 471.7 441.82 465.25 436.67 458.46C436 457.57 434.48 458.46 435.16 459.34Z" fill="#4B6590"/>
        <path d="M439.14 462.64C439.14 462.64 426.71 465.07 429.62 448.12C429.62 448.12 443.19 451.87 439.14 462.64Z" fill="#4B6590"/>
        <path d="M486.45 481.58C486.45 481.58 474.85 476.5 486.89 464.22C486.89 464.22 495.91 475 486.45 481.58Z" fill="#4B6590"/>
        <path d="M499.5 493.81C499.5 493.81 509.21 501.94 494.21 510.36C494.21 510.36 488.58 497.45 499.5 493.81Z" fill="#4B6590"/>
        <path d="M490.7 488.11C490.7 488.11 493.36 500.5 476.36 497.91C476.36 497.91 479.86 484.26 490.7 488.11Z" fill="#4B6590"/>
        <path d="M477.66 476.74C477.66 476.74 483.11 488.17 466 489.58C466 489.58 466.22 475.5 477.66 476.74Z" fill="#4B6590"/>
        <path d="M466 474.45C466 474.45 455.27 470.45 465.56 458.74C465.52 458.74 474.19 468.08 466 474.45Z" fill="#4B6590"/>
        <path d="M455.15 475.08C455.15 475.08 465.99 481.64 452.44 492.24C452.44 492.24 444.92 480.33 455.15 475.08Z" fill="#4B6590"/>
        <path d="M442.31 467.49C442.31 467.49 441.85 480.15 426 473.49C426 473.47 432.74 461.1 442.31 467.49Z" fill="#4B6590"/>
        <path d="M450.14 471.6C450.14 471.6 440.25 463.69 455.06 454.95C455.06 455 461 467.73 450.14 471.6Z" fill="#4B6590"/>
        <path d="M551.6 513.21C551.6 513.21 562.78 462.28 536.7 457.93C505.16 452.67 526.87 423.87 501.29 419.42C475.71 414.97 491.17 383.56 472.29 374.67C453.41 365.78 454.48 393 466.71 409.14C478.94 425.28 449.47 436.94 483.39 458.06C517.31 479.18 471.71 494.76 529 514.22C586.29 533.68 551.6 513.21 551.6 513.21Z" fill="#76B7B3"/>
        <path opacity="0.2" d="M553.05 521.52C552.38 520.63 551.7 519.72 550.98 518.79C498.89 451.19 462.89 373.69 462.79 373.47C454.35 376.94 457.1 396.47 466.71 409.14C478.94 425.26 449.47 436.94 483.39 458.06C517.31 479.18 471.71 494.76 529 514.22C540.24 518 547.93 520.32 553.05 521.52Z" fill="#C1EEE6"/>
        <path d="M556.09 516C556.09 516 598.62 485.8 582.23 465C562.43 439.89 597.87 433.18 581.93 412.69C565.99 392.2 598.56 379.34 590.55 360.05C582.54 340.76 565.05 361.66 563.25 381.82C561.45 401.98 531.8 390.82 542.69 429.24C553.58 467.66 509.37 448.54 538.69 501.46C568.01 554.38 556.09 516 556.09 516Z" fill="#76B7B3"/>
        <path opacity="0.2" d="M551.57 523.09C551.67 521.98 551.78 520.86 551.87 519.69C558.78 434.62 584.27 353.06 584.35 352.82C575.77 349.72 564.66 366.02 563.25 381.82C561.46 401.97 531.8 390.82 542.69 429.24C553.58 467.66 509.37 448.54 538.69 501.46C544.42 511.91 548.59 518.77 551.57 523.09Z" fill="#C1EEE6"/>
        <path d="M607.79 438.32C607.79 438.32 597.16 389.9 622 385.76C652 380.76 631.34 353.38 655.66 349.15C679.98 344.92 665.29 315.05 683.26 306.59C701.23 298.13 700.14 324 688.51 339.37C676.88 354.74 704.9 365.8 672.65 385.89C640.4 405.98 683.75 420.78 629.3 439.29C574.85 457.8 607.79 438.32 607.79 438.32Z" fill="#76B7B3"/>
        <path opacity="0.2" d="M606.41 446.23C607.05 445.38 607.7 444.52 608.41 443.64C657.94 379.36 692.17 305.64 692.27 305.45C700.27 308.75 697.68 327.32 688.54 339.37C676.88 354.7 704.9 365.8 672.65 385.89C640.4 405.98 683.75 420.78 629.3 439.29C618.59 442.93 611.28 445.09 606.41 446.23Z" fill="#C1EEE6"/>
    </g>
    <g clip-path="url(#clip2)">
        <path opacity="0.1" d="M71.76 529.36C111.392 529.36 143.52 525.013 143.52 519.65C143.52 514.287 111.392 509.94 71.76 509.94C32.128 509.94 0 514.287 0 519.65C0 525.013 32.128 529.36 71.76 529.36Z" fill="#2F3F5C"/>
        <path d="M39.8399 198.87L37.0699 219.08L22.8999 220.39C22.8999 220.39 39.3599 232.61 53.5399 234.73C67.7199 236.85 73.7499 226.42 73.7499 226.42L56.9999 222.54L59.6099 203.15L39.8399 198.87Z" fill="#DE7356"/>
        <path opacity="0.3" d="M39.8399 198.87L37.0699 219.08L22.8999 220.39C22.8999 220.39 39.3599 232.61 53.5399 234.73C67.7199 236.85 73.7499 226.42 73.7499 226.42L56.9999 222.54L59.6099 203.15L39.8399 198.87Z" fill="#BC4D33"/>
        <path d="M36.23 175.37C36.23 175.37 32.96 167.89 27.81 174.91C22.66 181.93 31.55 191.44 35.92 193.63C40.29 195.82 36.23 175.37 36.23 175.37Z" fill="#DE7356"/>
        <path d="M86.8201 168.37C86.8201 168.37 83.6001 208.05 71.3401 215.15C59.0801 222.25 33.9001 216.15 35.5301 185.79C37.4601 149.65 56.1701 146.11 63.5901 146.11C71.0101 146.11 87.7901 155.78 86.8201 168.37Z" fill="#DE7356"/>
        <path d="M58.39 157.43C58.39 157.43 59.79 170.43 76.8 175.69L71.8 169.45C71.8 169.45 80.7 176.45 88.34 178.96L87.09 172.88L89.9 176.93C90.642 173.271 90.5875 169.496 89.74 165.86L94.27 174.44C94.27 174.44 96.76 155.09 77 146.36C57.24 137.63 49.81 148.7 49.81 148.7L54 148.23C54 148.23 44.66 139.49 36.86 150.57C32.31 157 31.56 165.45 32.8 171.79C35.92 173.97 36.23 180.05 36.23 180.05L35.92 189.1L40.29 190.04L41.54 173.35C41.54 173.35 51.21 167.57 50.9 157.28C50.9 157.28 51.37 169.13 69.62 176L58.39 157.43Z" fill="#2F3F5C"/>
        <path d="M48.8201 185.37C48.8564 183.61 49.2582 181.877 50.0001 180.28C50.3892 179.422 50.9669 178.663 51.6901 178.06C52.0876 177.727 52.5528 177.483 53.0534 177.347C53.5541 177.211 54.0783 177.184 54.5901 177.27C55.6017 177.451 56.5142 177.991 57.1601 178.79C57.7233 179.555 58.0969 180.443 58.2501 181.38C58.5487 183.122 58.4357 184.91 57.9201 186.6C57.8866 184.909 57.6379 183.229 57.1801 181.6C56.7301 180.05 55.7601 178.8 54.3701 178.6C52.9801 178.4 51.8201 179.42 50.9501 180.76C50.0921 182.224 49.3787 183.768 48.8201 185.37Z" fill="#2F3F5C"/>
        <path d="M70.51 189.9C70.5417 188.14 70.9402 186.407 71.68 184.81C72.0759 183.953 72.6524 183.193 73.37 182.58C73.7705 182.248 74.2374 182.006 74.7394 181.87C75.2413 181.733 75.7667 181.706 76.28 181.79C77.2897 181.969 78.1997 182.509 78.84 183.31C79.4112 184.07 79.7857 184.96 79.93 185.9C80.2323 187.641 80.1227 189.429 79.61 191.12C79.569 189.446 79.3204 187.783 78.87 186.17C78.42 184.62 77.45 183.36 76.06 183.17C74.67 182.98 73.5 183.98 72.64 185.33C71.7784 186.778 71.0648 188.309 70.51 189.9Z" fill="#2F3F5C"/>
        <path d="M69.4601 180.83C70.1826 183.892 70.6706 187.004 70.9201 190.14C71.0601 191.7 71.1501 193.26 71.2201 194.82C71.2901 196.38 71.3101 197.95 71.2201 199.52V200L70.8301 200.07C69.591 200.324 68.3392 200.511 67.0801 200.63C68.2067 200.025 69.3651 199.481 70.5501 199L70.1501 199.57C69.9101 198.02 69.7301 196.47 69.5801 194.91C69.4301 193.35 69.3201 191.79 69.2601 190.23C69.0881 187.096 69.155 183.954 69.4601 180.83Z" fill="#BC4D33"/>
        <path d="M49.8101 199.56L72.4301 204.24C72.4301 204.24 60.0001 210.94 49.8101 199.56Z" fill="white"/>
        <path d="M46.9299 174.56C47.8471 173.34 49.0533 172.368 50.4399 171.73C51.8589 171.034 53.4194 170.674 54.9999 170.68C56.638 170.68 58.2367 171.182 59.5799 172.12C60.8763 173.024 61.8253 174.343 62.2699 175.86C61.0933 175.142 59.8469 174.546 58.5499 174.08C57.3911 173.697 56.1803 173.495 54.9599 173.48C53.6796 173.493 52.4024 173.607 51.1399 173.82C49.7999 174 48.4299 174.3 46.9299 174.56Z" fill="#2F3F5C"/>
        <path d="M71.49 178.81C72.283 177.646 73.3744 176.717 74.65 176.12C75.9752 175.473 77.4506 175.197 78.92 175.32C80.467 175.439 81.9175 176.118 83 177.23C83.5044 177.748 83.9199 178.346 84.23 179C84.5074 179.638 84.6959 180.311 84.79 181C83.806 180.25 82.7626 179.581 81.67 179C80.7407 178.503 79.72 178.2 78.67 178.11C77.5524 178.022 76.4284 178.062 75.32 178.23C74.1 178.33 72.87 178.58 71.49 178.81Z" fill="#2F3F5C"/>
        <path d="M51.28 482.26C51.28 482.26 52.99 514.26 50.55 517.2C48.11 520.14 -7.84001 534.54 39.07 510.11L34.42 468.82L49.08 486.41" fill="#DE7356"/>
        <path d="M20.4499 522.53C19.0399 527.44 48.7799 519.32 50.5499 517.2C50.8676 516.685 51.0753 516.109 51.1599 515.51C46.7799 517.9 26.8699 523.35 20.4499 522.53Z" fill="#2F3F5C"/>
        <path d="M26.1201 516.77L29.0501 515.06L36.0501 520.62L31.7801 522.45C31.7801 522.45 28.9101 516.89 23.5901 522.69L26.1201 516.77Z" fill="#2F3F5C"/>
        <path opacity="0.2" d="M51.8499 504.84C51.9499 494.75 51.2799 482.26 51.2799 482.26L49.0799 486.41L34.4199 468.82L38.5199 505.29C42.9666 505.097 47.4099 504.947 51.8499 504.84Z" fill="#182333"/>
        <path d="M81.7699 482.26C81.7699 482.26 80.0599 514.26 82.4999 517.2C84.9399 520.14 142.12 533.98 95.2099 509.55L94.0599 460L83.9999 486.41" fill="#DE7356"/>
        <path d="M112.6 522.53C114.01 527.44 84.2699 519.32 82.4999 517.2C82.1822 516.685 81.9745 516.109 81.8899 515.51C86.2799 517.9 106.18 523.35 112.6 522.53Z" fill="#2F3F5C"/>
        <path d="M108.11 516.23L105.18 514.52L96.98 520.62L101.25 522.45C101.25 522.45 104.13 516.89 109.44 522.69L108.11 516.23Z" fill="#2F3F5C"/>
        <path opacity="0.2" d="M95.1 504.55L94.1 460.03L84 486.41L81.8 482.26C81.8 482.26 80.94 498.26 81.31 508.7C86 507.5 90.58 506.19 95.1 504.55Z" fill="#182333"/>
        <path d="M16.54 341.33L36.1 500.74L53.35 500.61L49.75 357.53L57.85 357.98L80.35 498.81L98.2 497.31L87.7 326.78L16.54 341.33Z" fill="#88D2D0"/>
        <path opacity="0.2" d="M86.63 340.24L85.49 324.71L16.54 341.33L17.61 350.03C40.68 347.2 63.77 344.49 86.63 340.24Z" fill="#182333"/>
        <path d="M32.1899 493.9L54.3299 493.38L55.1599 501.48L35.0399 503.34L32.1899 493.9Z" fill="#C1EEE6"/>
        <path d="M98.94 492.12L78.3 495.29L79.25 503.37L99.36 501.48L98.94 492.12Z" fill="#C1EEE6"/>
        <path d="M93.73 251.72L111.79 274.85C111.79 274.85 154.79 246.52 157.48 246.85C160.17 247.18 117.28 301.91 109.99 303.85C102.7 305.79 69.8 261.25 69.8 261.25L93.73 251.72Z" fill="#DE7356"/>
        <path opacity="0.3" d="M99.3 258.85L93.73 251.72L69.8 261.25C69.8 261.25 73.93 266.84 79.58 273.98C86.17 269 93.41 264.72 99.3 258.85Z" fill="#BC4D33"/>
        <path opacity="0.3" d="M126.55 287.84C141.16 271.04 159.27 247.09 157.48 246.84C155.69 246.59 133.92 260.43 121.12 268.74C123.09 275.08 125.06 281.39 126.55 287.84Z" fill="#BC4D33"/>
        <path d="M33.6599 219.08C33.6599 219.08 13.6599 217.17 8.71992 230.57C3.77992 243.97 10.1799 319.1 14.5899 342.08C14.5899 342.08 57.1299 346.38 91.3599 337.29C91.3599 337.29 84.5099 268.38 85.4899 255.93C86.4699 243.48 89.8899 226.74 70.3299 224.35C70.3299 224.35 63.4799 236.35 49.7899 233.44C36.0999 230.53 33.6599 219.08 33.6599 219.08Z" fill="#7A8DB5"/>
        <path opacity="0.2" d="M7.43994 269.81C8.66994 296.39 11.9699 328.43 14.5899 342.08C14.5899 342.08 57.1299 346.38 91.3599 337.29C91.3599 337.29 88.3599 307.2 86.6199 283.2C59.4299 281.68 32.4899 278 7.43994 269.81Z" fill="#2F3F5C"/>
        <path d="M70.3301 224.35C70.3301 224.35 84.8001 222.35 96.1001 248.19L99.2501 255.39L79.4501 268L70.3301 224.35Z" fill="#7A8DB5"/>
        <path d="M143.299 259.364L111.129 308.751L120.555 314.891L152.725 265.505L143.299 259.364Z" fill="#4B6590"/>
        <path opacity="0.5" d="M143.299 259.364L111.129 308.751L120.555 314.891L152.725 265.505L143.299 259.364Z" fill="#2F3F5C"/>
        <path d="M175.23 277.26C205.081 277.26 229.28 253.061 229.28 223.21C229.28 193.359 205.081 169.16 175.23 169.16C145.379 169.16 121.18 193.359 121.18 223.21C121.18 253.061 145.379 277.26 175.23 277.26Z" fill="#4B6590"/>
        <path d="M184.496 265.408C207.794 260.29 222.531 237.254 217.413 213.957C212.295 190.659 189.26 175.922 165.962 181.04C142.664 186.158 127.927 209.193 133.045 232.491C138.163 255.788 161.198 270.526 184.496 265.408Z" fill="#88D2D0"/>
        <path d="M116.583 287.602L65.9916 365.268C63.8212 368.6 64.7628 373.06 68.0947 375.231L75.2588 379.897C78.5907 382.068 83.0512 381.126 85.2216 377.794L135.813 300.128C137.983 296.796 137.041 292.336 133.71 290.166L126.545 285.499C123.214 283.329 118.753 284.27 116.583 287.602Z" fill="#FFC330"/>
        <path opacity="0.2" d="M126.55 285.5L129.55 287.5C128.756 286.979 127.867 286.62 126.934 286.444C126.001 286.268 125.043 286.278 124.114 286.473C123.185 286.668 122.303 287.045 121.52 287.581C120.737 288.118 120.067 288.804 119.55 289.6L69 367.23C68.4798 368.024 68.1216 368.914 67.9461 369.847C67.7705 370.78 67.7811 371.739 67.9771 372.668C68.1732 373.598 68.5509 374.479 69.0885 375.262C69.6262 376.045 70.3132 376.713 71.11 377.23L68.11 375.23C67.3129 374.714 66.6259 374.045 66.0884 373.261C65.551 372.478 65.1738 371.597 64.9786 370.667C64.7835 369.738 64.7741 368.779 64.9511 367.845C65.1281 366.912 65.488 366.023 66.01 365.23L116.6 287.56C117.649 285.971 119.285 284.861 121.15 284.475C123.014 284.089 124.956 284.458 126.55 285.5Z" fill="#2F3F5C"/>
        <path opacity="0.2" d="M213.48 203.18L132.54 229.71C131.929 225.737 131.879 221.697 132.39 217.71L208.88 196.19C210.638 198.364 212.179 200.705 213.48 203.18Z" fill="white"/>
        <path opacity="0.2" d="M217.6 214.93C218.05 217.238 218.314 219.579 218.39 221.93L141.39 250.1C138.939 247.015 136.92 243.611 135.39 239.98L217.6 214.93Z" fill="white"/>
        <path d="M15.1101 266.64L41.6501 259.89C41.6501 259.89 44.3501 281.89 47.9501 299.89C53.8001 306.19 75.2301 340.69 77.6501 343.99C77.6501 343.99 100.15 343.99 81.2501 346.69C81.2501 346.69 107.35 368.74 79.4501 350.29C79.4501 350.29 108.7 375.03 77.6501 352.99C77.6501 352.99 102.85 375.48 75.4001 355.69C75.4001 355.69 91.1501 375.03 73.1501 357.49C63.0401 347.63 38.7801 326.88 28.1501 309.34C19.8701 295.7 19.6401 276.69 15.1101 266.64Z" fill="#DE7356"/>
        <path opacity="0.3" d="M42.7001 264.58C42.0501 261.66 41.6501 259.89 41.6501 259.89L15.1101 266.64C16.0178 268.752 16.7992 270.916 17.4501 273.12C25.7033 269.811 34.1328 266.96 42.7001 264.58Z" fill="#BC4D33"/>
    </g>
    <g clip-path="url(#clip3)">
        <path opacity="0.1" d="M421.82 532.78C521.684 532.78 602.64 528.433 602.64 523.07C602.64 517.707 521.684 513.36 421.82 513.36C321.956 513.36 241 517.707 241 523.07C241 528.433 321.956 532.78 421.82 532.78Z" fill="#2F3F5C"/>
        <path d="M414.19 514.26C414.19 514.26 362.03 532.51 422.37 521.7L423.9 510.94L414.19 514.26Z" fill="#2F3F5C"/>
        <path d="M553.75 510.48C553.75 510.48 603.75 546.89 561.6 502.36L551.77 507L553.75 510.48Z" fill="#2F3F5C"/>
        <path d="M512.34 379.54C512.34 379.54 530.59 404.89 521.65 432.98C512.71 461.07 493.65 481.66 489.77 490.55C498.831 487.214 508.672 486.616 518.07 488.83C534.16 492.46 555.91 503.49 555.91 503.49L556.6 515.37C556.6 515.37 468.43 523.67 456.87 518.82C445.31 513.97 465.43 431.3 465.43 431.3C465.43 431.3 437 433.16 421 428.18C421 428.18 429.21 439.68 430.76 463.13C432.31 486.58 423.84 514.24 423.84 514.24L410.78 514.3C410.78 514.3 388.55 429.46 393.28 406.65C398.01 383.84 464 388.5 464 388.5L471.51 373.42L512.34 379.54Z" fill="#4B6590"/>
        <path opacity="0.5" d="M482.83 386.38C492.53 387.38 505.61 388.62 514.89 383.74C513.89 382.14 511.89 379.19 511.89 379.19L471.5 373.42L466.5 383.54C471.869 384.874 477.326 385.823 482.83 386.38Z" fill="#2F3F5C"/>
        <path opacity="0.5" d="M465.43 431.3C465.43 431.3 465.38 431.58 465.3 432.09C465.491 431.858 465.721 431.662 465.98 431.51C456.98 419.61 454.76 402.59 451.54 388.11C432.16 388.02 396.66 390.11 393.24 406.65C388.51 429.46 410.74 514.3 410.74 514.3L423.8 514.24C423.8 514.24 432.27 486.59 430.72 463.13C429.17 439.67 421 428.18 421 428.18C437 433.16 465.43 431.3 465.43 431.3Z" fill="#2F3F5C"/>
        <path d="M512.85 254.43C512.85 254.43 491.71 245.77 483.31 261.93C474.91 278.09 480.68 288.72 464.15 299C447.62 309.28 447.8 331.11 464.33 342C480.86 352.89 510.88 336.52 510.88 336.52L512.85 254.43Z" fill="#D1634A"/>
        <path d="M513.9 255.87C511.443 254.816 508.878 254.034 506.25 253.54C503.641 253.018 500.972 252.863 498.32 253.08C495.682 253.271 493.116 254.021 490.79 255.28C488.496 256.575 486.534 258.386 485.06 260.57C483.649 262.803 482.415 265.144 481.37 267.57C480.355 270.027 479.474 272.537 478.73 275.09C477.98 277.65 477.28 280.24 476.36 282.78C475.481 285.362 474.198 287.789 472.56 289.97C472.155 290.518 471.71 291.036 471.23 291.52L470.54 292.28C470.3 292.52 470.04 292.74 469.79 292.97C469.27 293.41 468.79 293.88 468.25 294.31L466.6 295.5C466.32 295.69 466.05 295.9 465.77 296.08L464.89 296.6L463.15 297.6C462.01 298.3 460.9 298.98 459.78 299.69C455.473 302.771 452.23 307.115 450.5 312.12L450 314.04C449.92 314.35 449.83 314.67 449.76 315.04L449.64 316.04L449.39 318.04V321.04L449.51 322.04L449.77 324.04C449.92 324.68 450.09 325.32 450.26 325.96L450.51 326.96C450.59 327.28 450.74 327.58 450.85 327.89C452.728 332.909 455.983 337.296 460.24 340.55C455.852 337.392 452.445 333.059 450.41 328.05C450.137 327.435 449.923 326.795 449.77 326.14C449.59 325.49 449.4 324.84 449.24 324.14L449 322L448.85 321V320V318L449.06 316L449.17 315C449.24 314.67 449.33 314.34 449.41 314L449.89 312C451.557 306.778 454.846 302.223 459.28 299C460.41 298.26 461.58 297.54 462.72 296.84L464.42 295.84L465.27 295.33C465.54 295.15 465.81 294.95 466.07 294.76L467.67 293.59C468.18 293.18 468.67 292.72 469.15 292.29C469.39 292.07 469.64 291.86 469.88 291.63L470.53 290.89C470.986 290.422 471.41 289.924 471.8 289.4C475.09 285.25 476.35 279.95 477.9 274.85C478.661 272.272 479.566 269.738 480.61 267.26C481.687 264.781 482.975 262.398 484.46 260.14C486.017 257.901 488.07 256.053 490.46 254.74C491.656 254.095 492.925 253.598 494.24 253.26C495.546 252.9 496.887 252.682 498.24 252.61C500.926 252.465 503.619 252.697 506.24 253.3C508.88 253.873 511.449 254.734 513.9 255.87Z" fill="#D1634A"/>
        <path d="M496.51 307.53C496.51 307.53 496.81 319.82 495.01 321.02C493.21 322.22 479.11 313.53 470.11 321.32C461.11 329.11 485.11 360.02 492.01 360.32C498.91 360.62 525.3 352.52 525.01 343.82C524.72 335.12 510.31 326.12 511.51 308.13C512.71 290.14 496.51 307.53 496.51 307.53Z" fill="#FFC1B7"/>
        <path d="M496.18 317.1C501.482 317.186 506.737 316.1 511.57 313.92C511.401 311.995 511.377 310.059 511.5 308.13C512.7 290.13 496.5 307.53 496.5 307.53C496.572 310.723 496.465 313.918 496.18 317.1Z" fill="#FFA398"/>
        <path d="M508.43 260.66C508.43 260.66 493.58 259.54 487.43 275.14C481.06 291.33 481.36 308.77 496.96 311.43C512.56 314.09 527.18 300.2 528.08 288.37C528.98 276.54 526.73 262.13 508.43 260.66Z" fill="#FFC1B7"/>
        <path d="M503.33 261.78C503.33 261.78 500.86 273 517.5 282.93C517.5 282.93 496.81 320.5 514.35 332.2C531.89 343.9 513.22 360.46 521.09 369.2C528.96 377.94 555.09 373.12 565.42 349.94C579.37 318.7 533.7 313.08 541.8 286.53C541.8 286.53 548.33 267.18 533.93 256.38C520 245.92 505.58 248.73 503.33 261.78Z" fill="#DE7356"/>
        <path d="M568 350.38C569.054 347.573 569.727 344.636 570 341.65C570.219 338.689 569.786 335.715 568.73 332.94C567.656 330.187 566.136 327.629 564.23 325.37C562.305 323.085 560.223 320.937 558 318.94C553.63 314.87 548.89 311.04 545.16 306.08C543.249 303.592 541.864 300.741 541.09 297.7C540.384 294.613 540.415 291.403 541.18 288.33C542.8 282.682 542.924 276.71 541.54 271C540.812 268.187 539.534 265.546 537.78 263.23C536.895 262.07 535.889 261.008 534.78 260.06C534.25 259.57 533.66 259.14 533.09 258.69C532.52 258.24 531.86 257.87 531.25 257.46C528.774 255.833 526.081 254.564 523.25 253.69C520.455 252.788 517.5 252.485 514.58 252.8C511.644 253.107 508.897 254.392 506.78 256.45C504.75 258.632 503.431 261.381 503 264.33C503.247 261.272 504.466 258.374 506.48 256.06C508.6 253.797 511.416 252.308 514.48 251.83C517.542 251.381 520.665 251.589 523.64 252.44C526.602 253.266 529.429 254.52 532.03 256.16C534.755 257.682 537.149 259.731 539.074 262.188C540.999 264.645 542.415 267.46 543.24 270.47C544.77 276.488 544.691 282.802 543.01 288.78C542.306 291.562 542.265 294.47 542.89 297.27C543.619 300.07 544.897 302.698 546.65 305C550.09 309.75 554.76 313.61 559.06 317.84C561.265 319.934 563.314 322.187 565.19 324.58C567.093 326.982 568.58 329.686 569.59 332.58C570.545 335.499 570.852 338.59 570.49 341.64C570.094 344.66 569.255 347.605 568 350.38Z" fill="#DE7356"/>
        <path d="M521.78 286.53L517.5 297.78C517.5 297.78 522.31 301.91 526.5 294.63C530.78 287.2 526.28 283.15 521.78 286.53Z" fill="#FFC1B7"/>
        <path d="M522.9 298.45C522.9 298.846 522.783 299.232 522.563 299.561C522.343 299.89 522.031 300.146 521.665 300.298C521.3 300.449 520.898 300.489 520.51 300.412C520.122 300.334 519.765 300.144 519.486 299.864C519.206 299.585 519.015 299.228 518.938 298.84C518.861 298.452 518.901 298.05 519.052 297.685C519.204 297.319 519.46 297.007 519.789 296.787C520.118 296.567 520.504 296.45 520.9 296.45C521.43 296.45 521.939 296.661 522.314 297.036C522.689 297.411 522.9 297.92 522.9 298.45Z" fill="white"/>
        <path d="M498.91 280.23C498.038 281.97 497.035 283.641 495.91 285.23C495.35 286.02 494.78 286.81 494.18 287.58C493.58 288.35 492.97 289.1 492.34 289.84L492.18 289.02C493.447 289.897 494.653 290.859 495.79 291.9C494.348 291.356 492.945 290.714 491.59 289.98L491.06 289.71L491.43 289.16C491.98 288.35 492.53 287.55 493.12 286.77C493.71 285.99 494.3 285.22 494.91 284.47C496.129 282.953 497.467 281.536 498.91 280.23Z" fill="#DD9B94"/>
        <path d="M489 276.48C488.603 277.754 488.437 279.088 488.51 280.42C488.566 280.988 488.773 281.53 489.11 281.99C489.488 282.401 489.973 282.699 490.51 282.85C491.069 283.051 491.665 283.129 492.257 283.079C492.849 283.029 493.423 282.852 493.94 282.56C495.062 281.848 496.014 280.899 496.73 279.78C496.45 281.218 495.671 282.511 494.53 283.43C493.914 283.92 493.179 284.237 492.4 284.35C491.624 284.447 490.836 284.375 490.09 284.14C489.301 283.884 488.605 283.4 488.09 282.75C487.638 282.074 487.414 281.272 487.45 280.46C487.54 279.004 488.081 277.613 489 276.48Z" fill="#2F3F5C"/>
        <path d="M504.27 282.78C503.876 284.054 503.713 285.389 503.79 286.72C503.846 287.288 504.053 287.83 504.39 288.29C504.769 288.695 505.249 288.992 505.78 289.15C506.341 289.351 506.938 289.43 507.532 289.38C508.125 289.33 508.701 289.152 509.22 288.86C510.333 288.141 511.281 287.193 512 286.08C511.716 287.517 510.938 288.808 509.8 289.73C509.183 290.218 508.448 290.535 507.67 290.65C506.89 290.746 506.099 290.675 505.35 290.44C504.564 290.179 503.869 289.696 503.35 289.05C502.906 288.371 502.686 287.57 502.72 286.76C502.813 285.305 503.355 283.915 504.27 282.78Z" fill="#2F3F5C"/>
        <path d="M490.81 297C492.526 297.788 494.349 298.317 496.22 298.57C497.139 298.687 498.064 298.744 498.99 298.74C499.94 298.74 500.88 298.66 501.91 298.65C501.056 299.2 500.106 299.583 499.11 299.78C498.102 299.999 497.063 300.043 496.04 299.91C495.016 299.769 494.025 299.451 493.11 298.97C492.192 298.514 491.401 297.837 490.81 297Z" fill="#DD9B94"/>
        <path d="M505.06 276.93C506.157 276.257 507.435 275.939 508.72 276.02C510.028 276.064 511.303 276.435 512.43 277.1C513.56 277.751 514.512 278.672 515.2 279.78C515.542 280.32 515.814 280.901 516.01 281.51C516.187 282.118 516.284 282.747 516.3 283.38C515.75 283.01 515.35 282.59 514.89 282.23C514.43 281.87 514.06 281.48 513.6 281.23C512.806 280.582 511.96 280 511.07 279.49C510.188 278.967 509.265 278.515 508.31 278.14C507.31 277.69 506.27 277.33 505.06 276.93Z" fill="#D1634A"/>
        <path d="M490.18 270.67C491.007 269.857 492.12 269.401 493.28 269.4C494.457 269.366 495.619 269.668 496.63 270.27C497.603 270.862 498.416 271.682 499 272.66C499.276 273.135 499.501 273.638 499.67 274.16C499.81 274.7 499.89 275.253 499.91 275.81C499.442 275.548 498.997 275.247 498.58 274.91C498.15 274.64 497.79 274.33 497.41 274.06C496.66 273.51 495.96 273.06 495.25 272.59C493.681 271.668 491.966 271.019 490.18 270.67Z" fill="#D1634A"/>
        <path d="M457.66 338.27L443.71 353.57L392.42 334.67L390.62 345.92C390.62 345.92 440.11 372.92 445.06 372.92C450.01 372.92 473.86 347.27 473.86 347.27L457.66 338.27Z" fill="#FFC1B7"/>
        <path d="M414.92 343L392.42 334.71L390.62 345.96C390.62 345.96 409.62 356.32 425.24 364.2C422 357 418.71 349.85 414.92 343Z" fill="#FFA398"/>
        <path d="M470 351.38C472.37 348.92 473.91 347.27 473.91 347.27L457.71 338.27L454.42 341.88C459.57 345.05 464.4 348.86 470 351.38Z" fill="#FFA398"/>
        <path d="M399 338.84C399 338.84 398.81 316.14 396 335.41C393.19 354.68 399 338.84 399 338.84Z" fill="#FFA398"/>
        <path d="M466 346.84L454.27 338.36C454.27 338.36 466.93 319 477 318.32C477 318.32 466.93 338.36 466 346.84Z" fill="#88D2D0"/>
        <path d="M477 318.32C477 318.32 473.1 332.72 490.5 339.62C507.9 346.52 515.39 329.72 521.09 339.32C526.79 348.92 512.99 380.42 512.99 380.42C512.99 380.42 488.99 382.22 470.99 373.82C470.99 373.82 470.09 366.92 469.79 360.62C469.79 360.62 452.69 352.62 469.79 332.42L470.09 321.32C470.933 320.321 471.995 319.531 473.194 319.011C474.392 318.49 475.695 318.254 477 318.32Z" fill="#88D2D0"/>
        <path opacity="0.2" d="M505.31 367.91C497.06 366.91 488.77 365.68 480.63 363.99C476.907 363.336 473.275 362.242 469.81 360.73C470.12 367 471.01 373.82 471.01 373.82C489.01 382.22 513.01 380.42 513.01 380.42C513.01 380.42 515.15 375.54 517.39 369.05C513.35 368.78 509.33 368.42 505.31 367.91Z" fill="#2F3F5C"/>
        <path d="M288.59 515.07L264.15 521.52L251.7 408.54H296.89L299.19 416.84H354.53L360.07 511.38L288.59 515.07Z" fill="#CC5E44"/>
        <path d="M268.3 517.37L265.53 420.99L390.04 420.53L364.22 514.61L268.3 517.37Z" fill="white"/>
        <path opacity="0.3" d="M268.3 517.37L265.53 420.99L390.04 420.53L364.22 514.61L268.3 517.37Z" fill="#7A8DB5"/>
        <path d="M277.06 515.07L274.29 423.76L398.8 423.3L372.98 517.37L277.06 515.07Z" fill="white"/>
        <path opacity="0.1" d="M277.06 515.07L274.29 423.76L398.8 423.3L372.98 517.37L277.06 515.07Z" fill="#7A8DB5"/>
        <path d="M320.13 466.64L317.36 375.33L441.88 374.87L437.72 469.41L320.13 466.64Z" fill="white"/>
        <path opacity="0.1" d="M318.78 428.23L320.13 466.64L437.72 469.41L440.39 408.75L318.78 428.23Z" fill="#7A8DB5"/>
        <path d="M276.55 400.24L273.79 308.93L398.3 308.47L394.15 403L276.55 400.24Z" fill="white"/>
        <path opacity="0.1" d="M276.04 383.25L276.55 400.24L394.15 403L398.16 311.65L276.04 383.25Z" fill="#7A8DB5"/>
        <path d="M264.15 521.52H386.81L423.25 422.37H382.66L378.97 429.29H295.51L264.15 521.52Z" fill="#DE7356"/>
        <path d="M494.34 353.92L471 379.3C471 379.3 440.51 382.62 433.62 383.41L432.04 383.6C424.14 377.46 427.48 381.95 429.29 384.17C406.69 389.3 425.83 387.17 425.83 387.17C405.54 394.33 427.12 389.17 427.12 389.17C411.3 400.81 428.62 390.96 428.62 390.96C416.87 402.54 431 391.86 431 391.86C431 391.86 472.19 396.04 480.55 392.46C488.91 388.88 506.22 370.37 506.22 370.37C499.39 366.17 494.34 353.92 494.34 353.92Z" fill="#FFC1B7"/>
        <path d="M503.89 372.82C505.36 371.31 506.25 370.35 506.25 370.35C499.39 366.17 494.34 353.92 494.34 353.92L487.64 361.22C493 365.19 498.37 369.1 503.89 372.82Z" fill="#FFA398"/>
        <path d="M488.59 357.68L506.83 370.86C510.651 366.854 514.152 362.554 517.3 358C521.64 351.5 499.25 344.46 499.25 344.46L488.59 357.68Z" fill="#88D2D0"/>
    </g>
    <defs>
        <linearGradient id="paint0_linear" x1="36" y1="259.5" x2="623" y2="259.5" gradientUnits="userSpaceOnUse">
            <stop stop-color="#FAD0C4"/>
            <stop offset="0.01" stop-color="#FAD0C4"/>
            <stop offset="1" stop-color="#FFD1FF"/>
        </linearGradient>
        <clipPath id="clip0">
            <rect width="298.3" height="59.98" fill="white" transform="translate(298 172)"/>
        </clipPath>
        <clipPath id="clip1">
            <rect width="293.11" height="244.46" fill="white" transform="translate(426 285)"/>
        </clipPath>
        <clipPath id="clip2">
            <rect width="229.28" height="386.37" fill="white" transform="translate(0 143)"/>
        </clipPath>
        <clipPath id="clip3">
            <rect width="361.64" height="282.79" fill="white" transform="translate(241 250)"/>
        </clipPath>
    </defs>
</svg>
