<svg width="14" height="15" viewBox="0 0 14 15" fill="none" xmlns="http://www.w3.org/2000/svg">
    <path d="M2.89377 6.1775L1.17876 7.8925C0.475444 8.59582 0.0803223 9.54973 0.0803223 10.5444C0.0803223 11.539 0.475444 12.4929 1.17876 13.1962C1.88209 13.8996 2.83599 14.2947 3.83064 14.2947C4.82529 14.2947 5.77919 13.8996 6.48251 13.1962L8.76752 10.91C9.19163 10.4858 9.50781 9.96609 9.6895 9.39443C9.8712 8.82278 9.91311 8.21587 9.81172 7.62467C9.71032 7.03346 9.46859 6.47521 9.1068 5.99676C8.74502 5.51831 8.27374 5.13362 7.73252 4.875L7.00002 5.6075C6.92564 5.68199 6.86096 5.76557 6.80752 5.85625C7.22567 5.97646 7.60522 6.20372 7.90863 6.51557C8.21204 6.82742 8.42881 7.21305 8.53752 7.63435C8.64622 8.05565 8.64309 8.49802 8.52843 8.91774C8.41377 9.33745 8.19156 9.71998 7.88377 10.0275L5.60002 12.3125C5.13091 12.7816 4.49468 13.0451 3.83127 13.0451C3.16786 13.0451 2.53162 12.7816 2.06252 12.3125C1.59341 11.8434 1.32987 11.2072 1.32987 10.5437C1.32987 9.88034 1.59341 9.2441 2.06252 8.775L3.05376 7.785C2.91391 7.26091 2.85988 6.71762 2.89377 6.17625V6.1775Z" fill="#2F80ED"/>
    <path d="M4.13996 6.69996L4.34871 6.49121C4.6584 6.18037 5.0448 5.95698 5.46871 5.84371C5.58199 5.4198 5.80537 5.0334 6.11621 4.72371L6.32496 4.51495C5.69617 4.4796 5.06858 4.60297 4.49996 4.8737C4.22496 5.44871 4.10496 6.07746 4.13996 6.69871V6.69996Z" fill="#2F80ED"/>
    <path d="M5.23244 3.83999C4.80832 4.26416 4.49214 4.78389 4.31045 5.35555C4.12876 5.92721 4.08685 6.53411 4.18824 7.12532C4.28963 7.71652 4.53136 8.27478 4.89315 8.75323C5.25494 9.23168 5.72622 9.61636 6.26744 9.87498L7.23619 8.90498C6.81237 8.7913 6.42594 8.56808 6.11573 8.25774C5.80552 7.9474 5.58246 7.56087 5.46895 7.13701C5.35545 6.71315 5.35551 6.26688 5.46912 5.84304C5.58273 5.41921 5.8059 5.03275 6.11619 4.72249L8.39994 2.43749C8.86904 1.96838 9.50528 1.70485 10.1687 1.70485C10.8321 1.70485 11.4683 1.96838 11.9374 2.43749C12.4065 2.90659 12.6701 3.54283 12.6701 4.20624C12.6701 4.86965 12.4065 5.50588 11.9374 5.97498L10.9462 6.96498C11.0862 7.48998 11.1399 8.03373 11.1062 8.57373L12.8212 6.85873C13.5245 6.15541 13.9196 5.20151 13.9196 4.20686C13.9196 3.21221 13.5245 2.25831 12.8212 1.55499C12.1179 0.851665 11.164 0.456543 10.1693 0.456543C9.17467 0.456543 8.22076 0.851665 7.51744 1.55499L5.23244 3.83999Z" fill="#2F80ED"/>
    <path d="M9.50005 9.87493C9.77194 9.30665 9.89577 8.67888 9.86005 8.04993L9.6513 8.25868C9.34161 8.56951 8.95521 8.7929 8.5313 8.90618C8.41802 9.33008 8.19464 9.71649 7.8838 10.0262L7.67505 10.2349C8.30384 10.2703 8.93143 10.1469 9.50005 9.87618V9.87493Z" fill="#2F80ED"/>
</svg>
