<svg width="23" height="23" viewBox="0 0 23 23" fill="none" xmlns="http://www.w3.org/2000/svg">
    <path d="M10.41 14.7063C10.4856 14.7402 10.5538 14.7888 10.6104 14.8493C10.6671 14.9098 10.7112 14.981 10.7401 15.0586C10.769 15.1363 10.7821 15.219 10.7788 15.3018C10.7755 15.3846 10.7557 15.4659 10.7206 15.541C10.6856 15.6161 10.6359 15.6835 10.5746 15.7392C10.5132 15.795 10.4414 15.8379 10.3633 15.8657C10.2852 15.8934 10.2023 15.9053 10.1196 15.9007C10.0368 15.8961 9.95581 15.875 9.88125 15.8388V15.8401C9.06157 15.4579 8.34612 14.8838 7.79555 14.1663C7.24498 13.4488 6.87553 12.6091 6.71853 11.7185C6.56152 10.8278 6.62158 9.91242 6.89362 9.04992C7.16566 8.18742 7.64165 7.40322 8.28125 6.76382L12.7013 2.34382C13.2236 1.82149 13.8437 1.40715 14.5261 1.12447C15.2086 0.841785 15.9401 0.696289 16.6788 0.696289C17.4174 0.696289 18.1489 0.841785 18.8314 1.12447C19.5138 1.40715 20.1339 1.82149 20.6563 2.34382C21.1786 2.86616 21.5929 3.48626 21.8756 4.16872C22.1583 4.85118 22.3038 5.58263 22.3038 6.32132C22.3038 7.06001 22.1583 7.79147 21.8756 8.47393C21.5929 9.15639 21.1786 9.77649 20.6563 10.2988L18.6138 12.3401L18.4263 10.7601L19.7725 9.41507C20.593 8.59456 21.054 7.48171 21.054 6.32132C21.054 5.16094 20.593 4.04809 19.7725 3.22757C18.952 2.40706 17.8391 1.9461 16.6788 1.9461C15.5184 1.9461 14.4055 2.40706 13.585 3.22757L9.165 7.64757C8.66737 8.14483 8.29698 8.75476 8.08526 9.42564C7.87353 10.0965 7.82671 10.8086 7.94877 11.5014C8.07082 12.1942 8.35815 12.8474 8.78639 13.4055C9.21463 13.9637 9.77115 14.4103 10.4088 14.7076V14.7063H10.41ZM2.09375 20.9063C1.57142 20.384 1.15708 19.7639 0.874389 19.0814C0.591702 18.399 0.446205 17.6675 0.446205 16.9288C0.446205 16.1901 0.591702 15.4587 0.874389 14.7762C1.15708 14.0938 1.57142 13.4737 2.09375 12.9513L4.13625 10.9101L4.32375 12.4901L2.9775 13.8351C2.15699 14.6556 1.69603 15.7684 1.69603 16.9288C1.69603 17.5034 1.8092 18.0723 2.02907 18.6031C2.24895 19.134 2.57123 19.6163 2.9775 20.0226C3.38378 20.4289 3.8661 20.7511 4.39693 20.971C4.92775 21.1909 5.49669 21.304 6.07125 21.304C7.23164 21.304 8.34449 20.8431 9.165 20.0226L13.585 15.6026C14.0826 15.1053 14.453 14.4954 14.6647 13.8245C14.8765 13.1536 14.9233 12.4416 14.8012 11.7488C14.6792 11.0559 14.3919 10.4028 13.9636 9.84461C13.5354 9.28648 12.9789 8.83984 12.3413 8.54257V8.54382C12.2642 8.51095 12.1945 8.46292 12.1363 8.40257C12.0782 8.34222 12.0328 8.27079 12.0028 8.19254C11.9728 8.11428 11.9588 8.03079 11.9618 7.94704C11.9647 7.86329 11.9844 7.78098 12.0198 7.70501C12.0552 7.62904 12.1055 7.56096 12.1677 7.50483C12.23 7.44869 12.3028 7.40565 12.382 7.37825C12.4612 7.35085 12.5451 7.33966 12.6288 7.34534C12.7124 7.35102 12.794 7.37346 12.8688 7.41132V7.41007C13.6884 7.79223 14.4039 8.36638 14.9545 9.08387C15.505 9.80137 15.8745 10.641 16.0315 11.5317C16.1885 12.4223 16.1284 13.3377 15.8564 14.2002C15.5843 15.0627 15.1084 15.8469 14.4688 16.4863L10.0488 20.9063C9.52642 21.4287 8.90632 21.843 8.22386 22.1257C7.5414 22.4084 6.80995 22.5539 6.07125 22.5539C5.33256 22.5539 4.6011 22.4084 3.91864 22.1257C3.23618 21.843 2.61608 21.4287 2.09375 20.9063Z" fill="url(#paint0_linear)"/>
    <defs>
        <linearGradient id="paint0_linear" x1="0.446205" y1="11.6251" x2="22.3038" y2="11.6251" gradientUnits="userSpaceOnUse">
            <stop stop-color="#F093FB"/>
            <stop offset="1" stop-color="#F5576C"/>
        </linearGradient>
    </defs>
</svg>
