<svg width="19" height="26" viewBox="0 0 19 26" fill="none" xmlns="http://www.w3.org/2000/svg">
    <path d="M15 8.00001C15.9946 8.00001 16.9484 8.3951 17.6517 9.09836C18.3549 9.80162 18.75 10.7554 18.75 11.75V21.75C18.75 22.7446 18.3549 23.6984 17.6517 24.4017C16.9484 25.1049 15.9946 25.5 15 25.5H3.75C2.75544 25.5 1.80161 25.1049 1.09835 24.4017C0.395088 23.6984 0 22.7446 0 21.75V11.75C0 10.7554 0.395088 9.80162 1.09835 9.09836C1.80161 8.3951 2.75544 8.00001 3.75 8.00001H13.75V6.12501C13.752 5.01756 13.3339 3.95056 12.5801 3.13924C11.8263 2.32792 10.7929 1.83266 9.68827 1.75336C8.58366 1.67406 7.49008 2.01663 6.62812 2.71196C5.76615 3.40728 5.19996 4.40363 5.04375 5.50001H3.78375C3.94117 4.06928 4.64106 2.75333 5.73937 1.82302C6.83768 0.892712 8.25083 0.418827 9.68796 0.498908C11.1251 0.578989 12.4769 1.20694 13.465 2.25352C14.4532 3.30009 15.0025 4.68565 15 6.12501V8.00001ZM3.75 9.25001C3.08696 9.25001 2.45107 9.5134 1.98223 9.98224C1.51339 10.4511 1.25 11.087 1.25 11.75V21.75C1.25 22.4131 1.51339 23.0489 1.98223 23.5178C2.45107 23.9866 3.08696 24.25 3.75 24.25H15C15.663 24.25 16.2989 23.9866 16.7678 23.5178C17.2366 23.0489 17.5 22.4131 17.5 21.75V11.75C17.5 11.087 17.2366 10.4511 16.7678 9.98224C16.2989 9.5134 15.663 9.25001 15 9.25001H3.75ZM9.375 15.5C8.87772 15.5 8.40081 15.6976 8.04917 16.0492C7.69754 16.4008 7.5 16.8777 7.5 17.375C7.5 17.8723 7.69754 18.3492 8.04917 18.7008C8.40081 19.0525 8.87772 19.25 9.375 19.25C9.87228 19.25 10.3492 19.0525 10.7008 18.7008C11.0525 18.3492 11.25 17.8723 11.25 17.375C11.25 16.8777 11.0525 16.4008 10.7008 16.0492C10.3492 15.6976 9.87228 15.5 9.375 15.5ZM9.375 14.25C10.2038 14.25 10.9987 14.5793 11.5847 15.1653C12.1708 15.7514 12.5 16.5462 12.5 17.375C12.5 18.2038 12.1708 18.9987 11.5847 19.5847C10.9987 20.1708 10.2038 20.5 9.375 20.5C8.5462 20.5 7.75134 20.1708 7.16529 19.5847C6.57924 18.9987 6.25 18.2038 6.25 17.375C6.25 16.5462 6.57924 15.7514 7.16529 15.1653C7.75134 14.5793 8.5462 14.25 9.375 14.25Z" fill="url(#paint0_linear)"/>
    <defs>
        <linearGradient id="paint0_linear" x1="0" y1="12.9951" x2="18.75" y2="12.9951" gradientUnits="userSpaceOnUse">
            <stop stop-color="#F093FB"/>
            <stop offset="1" stop-color="#F5576C"/>
        </linearGradient>
    </defs>
</svg>
