<svg width="50" height="50" viewBox="0 0 50 50" fill="none" xmlns="http://www.w3.org/2000/svg">
    <path d="M50 25.293V42.1875C50 46.4954 46.4954 50 42.1875 50H7.8125C3.50456 50 0 46.4954 0 42.1875V7.8125C0 3.50456 3.50456 0 7.8125 0H24.8047C25.8835 0 26.7578 0.874329 26.7578 1.95312C26.7578 3.03192 25.8835 3.90625 24.8047 3.90625H7.8125C5.65872 3.90625 3.90625 5.65872 3.90625 7.8125V42.1875C3.90625 44.3413 5.65872 46.0938 7.8125 46.0938H42.1875C44.3413 46.0938 46.0938 44.3413 46.0938 42.1875V25.293C46.0938 24.2142 46.9681 23.3398 48.0469 23.3398C49.1257 23.3398 50 24.2142 50 25.293ZM26.6766 18.1431C26.7136 18.2198 26.7551 18.2945 26.8013 18.3655C26.9493 18.5932 27.2945 19.1158 27.6844 19.651L21.2753 26.0601C20.5124 26.823 20.5124 28.0598 21.2753 28.8223C21.6564 29.2038 22.1565 29.3945 22.6562 29.3945C23.156 29.3945 23.6561 29.2038 24.0372 28.8227L27.5734 25.2865C27.6573 25.4398 27.7386 25.5943 27.8141 25.7442C28.1643 26.4832 28.3417 27.2282 28.3417 27.9594C28.3417 29.9576 27.1999 32.1648 25.0385 34.3449L24.8585 34.5009C24.7871 34.5627 24.7204 34.6294 24.6586 34.7008L24.5033 34.8801C22.3213 37.0419 20.1145 38.1836 18.1175 38.1836C17.0162 38.1836 15.9977 37.8441 15.0082 37.1468C14.9727 37.1155 14.9361 37.085 14.8987 37.056L14.7087 36.9106C14.4264 36.6943 14.1472 36.4487 13.879 36.1805C12.5568 34.8602 11.9141 33.4862 11.9141 31.9801C11.9141 29.9816 13.0562 27.7744 15.2176 25.5939L15.398 25.4379C15.4686 25.3765 15.535 25.3105 15.596 25.2399L15.752 25.0599C17.4622 23.365 19.1196 22.3122 20.6795 21.9303C21.727 21.674 22.3686 20.6165 22.1119 19.5686C21.8555 18.5211 20.7985 17.8795 19.7506 18.1358C17.4732 18.6935 15.1833 20.1088 12.9436 22.3438C12.9101 22.3774 12.8777 22.4117 12.8468 22.4476L12.735 22.5765L12.606 22.6883C12.5702 22.7192 12.5355 22.7516 12.5023 22.7848C9.56192 25.7298 8.00781 28.9093 8.00781 31.9801C8.00781 34.5402 9.05457 36.8835 11.1187 38.9446C11.507 39.3326 11.9152 39.6912 12.3322 40.0108L12.3951 40.0589C12.4504 40.1108 12.5092 40.1596 12.5706 40.2046C14.2696 41.4558 16.1358 42.0898 18.1175 42.0898C21.1864 42.0898 24.366 40.5357 27.3125 37.5957C27.3464 37.5618 27.3788 37.5267 27.4101 37.4905L27.5208 37.3627L27.6493 37.2517C27.6852 37.2204 27.7203 37.188 27.7538 37.1544C30.6938 34.2094 32.2479 31.0299 32.2479 27.9594C32.2479 26.6354 31.9393 25.3181 31.3309 24.0444C31.3259 24.0337 31.321 24.0231 31.3156 24.0128C31.1779 23.7373 30.8426 23.0873 30.4302 22.4293L36.7325 16.127C37.495 15.3645 37.495 14.1277 36.7325 13.3648C35.9695 12.6022 34.7328 12.6022 33.9703 13.3648L30.4871 16.848C30.3707 16.6798 30.2559 16.5096 30.1495 16.3486C29.8283 15.641 29.6658 14.9281 29.6658 14.2277C29.6658 12.2295 30.8079 10.0227 32.9689 7.84225L33.1493 7.68623C33.2207 7.62444 33.2874 7.55806 33.3488 7.48672L33.5037 7.30705C35.6861 5.14565 37.8933 4.00352 39.8899 4.00352C40.9912 4.00352 42.0101 4.34303 42.9996 5.04074C43.0351 5.07202 43.0714 5.10216 43.1091 5.13115L43.2987 5.27649C43.5806 5.49278 43.8599 5.73845 44.1288 6.00662C45.451 7.32689 46.0938 8.70094 46.0938 10.2074C46.0938 12.2055 44.9516 14.4127 42.7902 16.5932L42.6098 16.7496C42.5392 16.8106 42.4728 16.877 42.4118 16.9476L42.2562 17.1272C40.5788 18.7878 38.8725 19.8151 37.1841 20.1809C36.1301 20.409 35.4603 21.4489 35.6888 22.5029C35.8868 23.418 36.6962 24.0429 37.5957 24.0429C37.7327 24.0429 37.8716 24.0288 38.0108 23.9983C40.4594 23.4684 42.8326 22.0703 45.0645 19.8433C45.0981 19.8101 45.1302 19.7754 45.1614 19.7395L45.2728 19.6106L45.4021 19.4988C45.4376 19.4679 45.4723 19.4355 45.5055 19.4023C48.4459 16.4577 50 13.2782 50 10.2074C50 7.64732 48.9532 5.30396 46.8891 3.24287C46.5004 2.85454 46.0922 2.49596 45.6757 2.17667L45.6123 2.12784C45.557 2.07634 45.4983 2.02789 45.4372 1.98288C43.7386 0.731659 41.872 0.0972748 39.8903 0.0972748C36.8217 0.0972748 33.6422 1.65138 30.6953 4.59175C30.6618 4.62532 30.629 4.66042 30.5977 4.69666L30.4871 4.82483L30.3581 4.93622C30.3223 4.96712 30.2876 4.99954 30.254 5.03311C27.314 7.97768 25.7599 11.1576 25.7599 14.2281C25.7599 15.5521 26.0681 16.8694 26.6766 18.1431Z" fill="url(#paint0_linear)"/>
    <defs>
        <linearGradient id="paint0_linear" x1="0" y1="25" x2="50" y2="25" gradientUnits="userSpaceOnUse">
            <stop stop-color="#F093FB"/>
            <stop offset="1" stop-color="#F5576C"/>
        </linearGradient>
    </defs>
</svg>
