<svg width="17" height="17" viewBox="0 0 17 17" fill="none" xmlns="http://www.w3.org/2000/svg">
    <path d="M1.50008 15.155L4.48841 12.1667H14.0001C14.4421 12.1667 14.866 11.9911 15.1786 11.6785C15.4912 11.366 15.6667 10.942 15.6667 10.5V3C15.6667 2.55797 15.4912 2.13405 15.1786 1.82149C14.866 1.50893 14.4421 1.33333 14.0001 1.33333H3.16675C2.72472 1.33333 2.3008 1.50893 1.98824 1.82149C1.67568 2.13405 1.50008 2.55797 1.50008 3V15.155ZM1.50008 16.3333H0.666748V3C0.666748 2.33696 0.93014 1.70107 1.39898 1.23223C1.86782 0.763392 2.50371 0.5 3.16675 0.5H14.0001C14.6631 0.5 15.299 0.763392 15.7678 1.23223C16.2367 1.70107 16.5001 2.33696 16.5001 3V10.5C16.5001 11.163 16.2367 11.7989 15.7678 12.2678C15.299 12.7366 14.6631 13 14.0001 13H4.83341L1.50008 16.3333ZM4.00008 3.83333H13.1667V4.66667H4.00008V3.83333ZM4.00008 6.33333H13.1667V7.16667H4.00008V6.33333ZM4.00008 8.83333H10.6667V9.66667H4.00008V8.83333Z" fill="white"/>
</svg>
