<svg width="25" height="25" viewBox="0 0 25 25" fill="none" xmlns="http://www.w3.org/2000/svg">
    <path d="M1.75 22.7325L6.2325 18.25H20.5C21.163 18.25 21.7989 17.9866 22.2678 17.5178C22.7366 17.0489 23 16.413 23 15.75V4.5C23 3.83696 22.7366 3.20107 22.2678 2.73223C21.7989 2.26339 21.163 2 20.5 2H4.25C3.58696 2 2.95107 2.26339 2.48223 2.73223C2.01339 3.20107 1.75 3.83696 1.75 4.5V22.7325ZM1.75 24.5H0.5V4.5C0.5 3.50544 0.895088 2.55161 1.59835 1.84835C2.30161 1.14509 3.25544 0.75 4.25 0.75H20.5C21.4946 0.75 22.4484 1.14509 23.1517 1.84835C23.8549 2.55161 24.25 3.50544 24.25 4.5V15.75C24.25 16.7446 23.8549 17.6984 23.1517 18.4017C22.4484 19.1049 21.4946 19.5 20.5 19.5H6.75L1.75 24.5ZM5.5 5.75H19.25V7H5.5V5.75ZM5.5 9.5H19.25V10.75H5.5V9.5ZM5.5 13.25H15.5V14.5H5.5V13.25Z" fill="url(#paint0_linear)"/>
    <defs>
        <linearGradient id="paint0_linear" x1="0.5" y1="12.625" x2="24.25" y2="12.625" gradientUnits="userSpaceOnUse">
            <stop stop-color="#F093FB"/>
            <stop offset="1" stop-color="#F5576C"/>
        </linearGradient>
    </defs>
</svg>
