<svg width="15" height="15" viewBox="0 0 15 15" fill="none" xmlns="http://www.w3.org/2000/svg">
    <path d="M14.4218 3.70173L12.4784 5.64506L9.35343 2.52007L11.2968 0.576732C11.3741 0.499277 11.4659 0.437829 11.567 0.395903C11.6681 0.353978 11.7765 0.332397 11.8859 0.332397C11.9954 0.332397 12.1037 0.353978 12.2048 0.395903C12.3059 0.437829 12.3978 0.499277 12.4751 0.576732L14.4218 2.5234C14.4992 2.60072 14.5607 2.69256 14.6026 2.79365C14.6445 2.89475 14.6661 3.00312 14.6661 3.11257C14.6661 3.22201 14.6445 3.33038 14.6026 3.43148C14.5607 3.53257 14.4992 3.62441 14.4218 3.70173ZM0.499268 11.3734L8.88677 2.98673L12.0118 6.11173L3.62427 14.4984H0.500101V11.3734H0.499268ZM11.8509 1.2034L10.5676 2.4859L12.5151 4.43173L13.7968 3.14923L11.8509 1.2034ZM10.7976 6.14923L8.85177 4.20256L1.33343 11.7201V13.6667H3.2801L10.7976 6.14923Z" fill="white"/>
</svg>
