<svg width="22" height="23" viewBox="0 0 22 23" fill="none" xmlns="http://www.w3.org/2000/svg">
    <path d="M21.6327 6.05254L18.7177 8.96754L14.0302 4.28004L16.9452 1.36504C17.0612 1.24885 17.199 1.15668 17.3506 1.09379C17.5023 1.03091 17.6648 0.998535 17.829 0.998535C17.9932 0.998535 18.1557 1.03091 18.3074 1.09379C18.459 1.15668 18.5968 1.24885 18.7127 1.36504L21.6327 4.28504C21.7489 4.40102 21.8411 4.53878 21.904 4.69042C21.9669 4.84206 21.9992 5.00462 21.9992 5.16879C21.9992 5.33295 21.9669 5.49551 21.904 5.64715C21.8411 5.7988 21.7489 5.93655 21.6327 6.05254ZM0.748993 17.56L13.3302 4.98004L18.0177 9.66754L5.43649 22.2475H0.750243V17.56H0.748993ZM17.7765 2.30504L15.8515 4.22879L18.7727 7.14754L20.6952 5.22379L17.7765 2.30504ZM16.1965 9.72379L13.2777 6.80379L2.00024 18.08V21H4.92024L16.1965 9.72379Z" fill="url(#paint0_linear)"/>
    <defs>
        <linearGradient id="paint0_linear" x1="0.748993" y1="11.623" x2="21.9992" y2="11.623" gradientUnits="userSpaceOnUse">
            <stop stop-color="#F093FB"/>
            <stop offset="1" stop-color="#F5576C"/>
        </linearGradient>
    </defs>
</svg>
