<svg width="22" height="22" viewBox="0 0 22 22" fill="none" xmlns="http://www.w3.org/2000/svg">
    <path d="M11 21.2C5.36005 21.2 0.800049 16.64 0.800049 11C0.800049 5.36 5.36005 0.799999 11 0.799999C16.64 0.799999 21.2 5.36 21.2 11C21.2 16.64 16.64 21.2 11 21.2ZM11 2C6.02005 2 2.00005 6.02 2.00005 11C2.00005 15.98 6.02005 20 11 20C15.98 20 20 15.98 20 11C20 6.02 15.98 2 11 2Z" fill="#4F4F4F"/>
    <path d="M7.87989 7.75996C8.05989 7.27996 8.23989 6.91996 8.59989 6.61996C8.89989 6.31996 9.25989 6.07996 9.73989 5.89996C10.2199 5.71996 10.6999 5.65996 11.2399 5.65996C11.6599 5.65996 12.0799 5.71996 12.4399 5.83996C12.7999 5.95996 13.1599 6.13996 13.4599 6.37996C13.7599 6.61996 13.9999 6.91996 14.1199 7.27996C14.2999 7.63996 14.3599 8.05996 14.3599 8.47996C14.3599 9.07996 14.2399 9.55996 13.9999 9.97996C13.7599 10.4 13.3999 10.76 13.0399 11.18L12.2599 11.96C12.0799 12.14 11.8999 12.32 11.8399 12.5C11.7199 12.68 11.6599 12.92 11.6599 13.16C11.5999 13.4 11.5999 13.58 11.5999 14.06H10.6399C10.6399 13.58 10.6399 13.4 10.6999 13.04C10.7599 12.74 10.8799 12.44 10.9999 12.14C11.1199 11.9 11.2999 11.66 11.5399 11.42C11.7799 11.18 12.0799 10.94 12.3799 10.58C12.6799 10.28 12.9199 9.97996 13.0999 9.67996C13.2799 9.37996 13.3999 8.95996 13.3999 8.59996C13.3999 8.29996 13.3399 7.99996 13.2199 7.75996C13.0999 7.51996 12.9199 7.27996 12.7399 7.09996C12.5599 6.91996 12.3199 6.79996 12.0199 6.67996C11.7199 6.55996 11.4799 6.49996 11.1799 6.49996C10.7599 6.49996 10.3999 6.55996 10.0999 6.73996C9.79989 6.85996 9.49989 7.09996 9.31989 7.33996C9.13989 7.57996 8.95989 7.87996 8.83989 8.23996C8.71989 8.59996 8.59989 8.77996 8.59989 9.19996H7.63989C7.63989 8.65996 7.69989 8.23996 7.87989 7.75996ZM11.5999 15.2V16.4H10.3999V15.2H11.5999Z" fill="#4F4F4F"/>
</svg>
