<svg width="29" height="30" viewBox="0 0 29 30" fill="none" xmlns="http://www.w3.org/2000/svg">
    <path d="M10.8334 0.666687C12.906 0.666642 14.9351 1.26114 16.68 2.37963C18.4249 3.49813 19.8123 5.09368 20.6776 6.97698C21.5429 8.86028 21.8499 10.9523 21.562 13.0048C21.2741 15.0573 20.4035 16.9841 19.0534 18.5567L28.4601 27.9634L27.2818 29.1417L17.8734 19.7334C16.5466 20.868 14.9651 21.6652 13.2637 22.057C11.5624 22.4488 9.79151 22.4236 8.10199 21.9836C6.41247 21.5435 4.85433 20.7016 3.56029 19.5296C2.26624 18.3576 1.27462 16.8902 0.669891 15.2524C0.0651591 13.6146 -0.134773 11.8549 0.0871239 10.1231C0.30902 8.39141 0.946171 6.73896 1.94431 5.30653C2.94245 3.87409 4.27201 2.70412 5.81974 1.89625C7.36748 1.08838 9.08754 0.666553 10.8334 0.666687ZM10.8334 2.33335C8.40229 2.33335 6.07071 3.29912 4.35162 5.01821C2.63254 6.73729 1.66677 9.06887 1.66677 11.5C1.66677 13.9312 2.63254 16.2627 4.35162 17.9818C6.07071 19.7009 8.40229 20.6667 10.8334 20.6667C13.2646 20.6667 15.5962 19.7009 17.3153 17.9818C19.0343 16.2627 20.0001 13.9312 20.0001 11.5C20.0001 9.06887 19.0343 6.73729 17.3153 5.01821C15.5962 3.29912 13.2646 2.33335 10.8334 2.33335Z" fill="url(#paint0_linear)"/>
    <defs>
        <linearGradient id="paint0_linear" x1="-0.000732422" y1="14.9042" x2="28.4601" y2="14.9042" gradientUnits="userSpaceOnUse">
            <stop stop-color="#F093FB"/>
            <stop offset="1" stop-color="#F5576C"/>
        </linearGradient>
    </defs>
</svg>
