<svg width="12" height="12" viewBox="0 0 12 12" fill="none" xmlns="http://www.w3.org/2000/svg">
    <path d="M11.3151 0.118774L11.8807 0.684774L5.88469 6.68077L5.31909 6.11517L11.3151 0.118774Z" fill="white"/>
    <path d="M12 4H11.2V0.8H8V0H12V4Z" fill="white"/>
    <path d="M10 11.2H2.00005C1.32005 11.2 0.800049 10.68 0.800049 10V2.00005C0.800049 1.32005 1.32005 0.800049 2.00005 0.800049H6.40005V1.60005H2.00005C1.76005 1.60005 1.60005 1.76005 1.60005 2.00005V10C1.60005 10.24 1.76005 10.4 2.00005 10.4H10C10.24 10.4 10.4 10.24 10.4 10V5.60005H11.2V10C11.2 10.68 10.68 11.2 10 11.2Z" fill="white"/>
</svg>
