<svg xmlns="http://www.w3.org/2000/svg" display="none">

    <symbol id="link" viewBox="0 0 14 15">
        <path d="M2.89377 6.1775L1.17876 7.8925C0.475444 8.59582 0.0803223 9.54973 0.0803223 10.5444C0.0803223 11.539 0.475444 12.4929 1.17876 13.1962C1.88209 13.8996 2.83599 14.2947 3.83064 14.2947C4.82529 14.2947 5.77919 13.8996 6.48251 13.1962L8.76752 10.91C9.19163 10.4858 9.50781 9.96609 9.6895 9.39443C9.8712 8.82278 9.91311 8.21587 9.81172 7.62467C9.71032 7.03346 9.46859 6.47521 9.1068 5.99676C8.74502 5.51831 8.27374 5.13362 7.73252 4.875L7.00002 5.6075C6.92564 5.68199 6.86096 5.76557 6.80752 5.85625C7.22567 5.97646 7.60522 6.20372 7.90863 6.51557C8.21204 6.82742 8.42881 7.21305 8.53752 7.63435C8.64622 8.05565 8.64309 8.49802 8.52843 8.91774C8.41377 9.33745 8.19156 9.71998 7.88377 10.0275L5.60002 12.3125C5.13091 12.7816 4.49468 13.0451 3.83127 13.0451C3.16786 13.0451 2.53162 12.7816 2.06252 12.3125C1.59341 11.8434 1.32987 11.2072 1.32987 10.5437C1.32987 9.88034 1.59341 9.2441 2.06252 8.775L3.05376 7.785C2.91391 7.26091 2.85988 6.71762 2.89377 6.17625V6.1775Z"
              fill="white"/>
        <path d="M4.13996 6.7L4.34871 6.49125C4.6584 6.18041 5.0448 5.95703 5.46871 5.84375C5.58199 5.41984 5.80537 5.03344 6.11621 4.72375L6.32496 4.515C5.69617 4.47965 5.06858 4.60302 4.49996 4.87375C4.22496 5.44875 4.10496 6.0775 4.13996 6.69875V6.7Z"
              fill="white"/>
        <path d="M5.23244 3.84C4.80832 4.26418 4.49214 4.78391 4.31045 5.35557C4.12876 5.92722 4.08685 6.53413 4.18824 7.12533C4.28963 7.71654 4.53136 8.27479 4.89315 8.75324C5.25494 9.23169 5.72622 9.61638 6.26744 9.875L7.23619 8.905C6.81237 8.79132 6.42594 8.56809 6.11573 8.25775C5.80552 7.94741 5.58246 7.56089 5.46895 7.13703C5.35545 6.71316 5.35551 6.26689 5.46912 5.84306C5.58273 5.41923 5.8059 5.03276 6.11619 4.7225L8.39994 2.4375C8.86904 1.9684 9.50528 1.70486 10.1687 1.70486C10.8321 1.70486 11.4683 1.9684 11.9374 2.4375C12.4065 2.9066 12.6701 3.54284 12.6701 4.20625C12.6701 4.86966 12.4065 5.5059 11.9374 5.975L10.9462 6.965C11.0862 7.49 11.1399 8.03375 11.1062 8.57375L12.8212 6.85875C13.5245 6.15543 13.9196 5.20152 13.9196 4.20688C13.9196 3.21223 13.5245 2.25832 12.8212 1.555C12.1179 0.85168 11.164 0.456558 10.1693 0.456558C9.17467 0.456558 8.22076 0.85168 7.51744 1.555L5.23244 3.84Z"
              fill="white"/>
        <path d="M9.50005 9.875C9.77194 9.30673 9.89577 8.67895 9.86005 8.05L9.6513 8.25875C9.34161 8.56959 8.95521 8.79298 8.5313 8.90625C8.41802 9.33016 8.19464 9.71656 7.8838 10.0263L7.67505 10.235C8.30384 10.2704 8.93143 10.147 9.50005 9.87625V9.875Z"
              fill="white"/>
    </symbol>

</svg>